<mxfile modified="2019-12-22T08:20:12.811Z" host="www.draw.io" agent="Mozilla/5.0 (Windows NT 6.1; Win64; x64) AppleWebKit/537.36 (KHTML, like Gecko) Chrome/77.0.3865.75 Safari/537.36" etag="PX23qolAACjrWkUGhtIx" version="12.4.3" type="github" pages="5">
  <diagram id="vmj1InUa-F-kXhf0yk-W" name=" CSV行切割处理器">
    <mxGraphModel dx="1102" dy="582" grid="1" gridSize="10" guides="1" tooltips="1" connect="1" arrows="1" fold="1" page="1" pageScale="1" pageWidth="3300" pageHeight="4681" math="0" shadow="0">
      <root>
        <mxCell id="ilBS5IOzWzwJCT2fAS7X-0"/>
        <mxCell id="ilBS5IOzWzwJCT2fAS7X-1" parent="ilBS5IOzWzwJCT2fAS7X-0"/>
        <mxCell id="ilBS5IOzWzwJCT2fAS7X-18" value="数据源" style="swimlane;fillColor=#b1ddf0;strokeColor=#10739e;" vertex="1" parent="ilBS5IOzWzwJCT2fAS7X-1">
          <mxGeometry x="260" y="220" width="220" height="590" as="geometry"/>
        </mxCell>
        <mxCell id="ilBS5IOzWzwJCT2fAS7X-19" value="CSV数据文件" style="strokeWidth=2;html=1;shape=mxgraph.flowchart.multi-document;whiteSpace=wrap;fillColor=#cce5ff;strokeColor=#36393d;" vertex="1" parent="ilBS5IOzWzwJCT2fAS7X-18">
          <mxGeometry x="40" y="135" width="124" height="90" as="geometry"/>
        </mxCell>
        <mxCell id="ilBS5IOzWzwJCT2fAS7X-20" value="ETL输入模块" style="swimlane;fillColor=#b1ddf0;strokeColor=#10739e;" vertex="1" parent="ilBS5IOzWzwJCT2fAS7X-1">
          <mxGeometry x="480" y="220" width="250" height="590" as="geometry"/>
        </mxCell>
        <mxCell id="ilBS5IOzWzwJCT2fAS7X-29" style="edgeStyle=orthogonalEdgeStyle;rounded=0;orthogonalLoop=1;jettySize=auto;html=1;entryX=0.5;entryY=0;entryDx=0;entryDy=0;" edge="1" parent="ilBS5IOzWzwJCT2fAS7X-20" source="ilBS5IOzWzwJCT2fAS7X-27" target="ilBS5IOzWzwJCT2fAS7X-28">
          <mxGeometry relative="1" as="geometry"/>
        </mxCell>
        <mxCell id="ilBS5IOzWzwJCT2fAS7X-27" value="初始化CSV行切割处理器" style="ellipse;whiteSpace=wrap;html=1;fillColor=#cce5ff;strokeColor=#36393d;" vertex="1" parent="ilBS5IOzWzwJCT2fAS7X-20">
          <mxGeometry x="70" y="35" width="110" height="70" as="geometry"/>
        </mxCell>
        <mxCell id="ilBS5IOzWzwJCT2fAS7X-32" style="edgeStyle=orthogonalEdgeStyle;rounded=0;orthogonalLoop=1;jettySize=auto;html=1;entryX=0.5;entryY=0;entryDx=0;entryDy=0;" edge="1" parent="ilBS5IOzWzwJCT2fAS7X-20" source="ilBS5IOzWzwJCT2fAS7X-28" target="ilBS5IOzWzwJCT2fAS7X-31">
          <mxGeometry relative="1" as="geometry"/>
        </mxCell>
        <mxCell id="ilBS5IOzWzwJCT2fAS7X-28" value="读取CSV数据文件" style="whiteSpace=wrap;html=1;fillColor=#cce5ff;strokeColor=#36393d;" vertex="1" parent="ilBS5IOzWzwJCT2fAS7X-20">
          <mxGeometry x="65" y="150" width="120" height="60" as="geometry"/>
        </mxCell>
        <mxCell id="ilBS5IOzWzwJCT2fAS7X-34" style="edgeStyle=orthogonalEdgeStyle;rounded=0;orthogonalLoop=1;jettySize=auto;html=1;entryX=0.5;entryY=0;entryDx=0;entryDy=0;" edge="1" parent="ilBS5IOzWzwJCT2fAS7X-20" source="ilBS5IOzWzwJCT2fAS7X-31" target="ilBS5IOzWzwJCT2fAS7X-33">
          <mxGeometry relative="1" as="geometry"/>
        </mxCell>
        <mxCell id="ilBS5IOzWzwJCT2fAS7X-31" value="按照指定分隔符切割单行数据，获取到首行标题、字段值、行号等信息" style="whiteSpace=wrap;html=1;fillColor=#cce5ff;strokeColor=#36393d;" vertex="1" parent="ilBS5IOzWzwJCT2fAS7X-20">
          <mxGeometry x="52.5" y="270" width="145" height="70" as="geometry"/>
        </mxCell>
        <mxCell id="ilBS5IOzWzwJCT2fAS7X-39" style="edgeStyle=orthogonalEdgeStyle;rounded=0;orthogonalLoop=1;jettySize=auto;html=1;entryX=0.5;entryY=0;entryDx=0;entryDy=0;" edge="1" parent="ilBS5IOzWzwJCT2fAS7X-20" source="ilBS5IOzWzwJCT2fAS7X-33" target="ilBS5IOzWzwJCT2fAS7X-41">
          <mxGeometry relative="1" as="geometry">
            <mxPoint x="125" y="480" as="targetPoint"/>
          </mxGeometry>
        </mxCell>
        <mxCell id="ilBS5IOzWzwJCT2fAS7X-33" value="将所有信息输出到消息队列中" style="whiteSpace=wrap;html=1;fillColor=#cce5ff;strokeColor=#36393d;" vertex="1" parent="ilBS5IOzWzwJCT2fAS7X-20">
          <mxGeometry x="65" y="380" width="120" height="60" as="geometry"/>
        </mxCell>
        <mxCell id="ilBS5IOzWzwJCT2fAS7X-41" value="处理完毕" style="ellipse;whiteSpace=wrap;html=1;fillColor=#cce5ff;strokeColor=#36393d;" vertex="1" parent="ilBS5IOzWzwJCT2fAS7X-20">
          <mxGeometry x="70" y="500" width="110" height="70" as="geometry"/>
        </mxCell>
        <mxCell id="ilBS5IOzWzwJCT2fAS7X-22" value="ETL输入消息队列" style="swimlane;fillColor=#b1ddf0;strokeColor=#10739e;" vertex="1" parent="ilBS5IOzWzwJCT2fAS7X-1">
          <mxGeometry x="730" y="220" width="190" height="590" as="geometry"/>
        </mxCell>
        <mxCell id="ilBS5IOzWzwJCT2fAS7X-36" value="Map&amp;lt;String,Object&amp;gt;" style="strokeWidth=2;html=1;shape=mxgraph.flowchart.sequential_data;whiteSpace=wrap;fillColor=#cce5ff;strokeColor=#36393d;" vertex="1" parent="ilBS5IOzWzwJCT2fAS7X-22">
          <mxGeometry x="30" y="225" width="125" height="100" as="geometry"/>
        </mxCell>
        <mxCell id="ilBS5IOzWzwJCT2fAS7X-37" style="edgeStyle=orthogonalEdgeStyle;rounded=0;orthogonalLoop=1;jettySize=auto;html=1;entryX=0.5;entryY=1;entryDx=0;entryDy=0;entryPerimeter=0;" edge="1" parent="ilBS5IOzWzwJCT2fAS7X-1" source="ilBS5IOzWzwJCT2fAS7X-33" target="ilBS5IOzWzwJCT2fAS7X-36">
          <mxGeometry relative="1" as="geometry"/>
        </mxCell>
        <mxCell id="h7IMU7EvwLSFvfN_jRss-0" style="edgeStyle=orthogonalEdgeStyle;rounded=0;orthogonalLoop=1;jettySize=auto;html=1;entryX=0;entryY=0.5;entryDx=0;entryDy=0;fontColor=#FFFFFF;" edge="1" parent="ilBS5IOzWzwJCT2fAS7X-1" source="ilBS5IOzWzwJCT2fAS7X-19" target="ilBS5IOzWzwJCT2fAS7X-28">
          <mxGeometry relative="1" as="geometry"/>
        </mxCell>
      </root>
    </mxGraphModel>
  </diagram>
  <diagram name="CacheBuildAnalyser解析器" id="MejdqdHksTLRqCOrMTN7">
    <mxGraphModel dx="1102" dy="582" grid="1" gridSize="10" guides="1" tooltips="1" connect="1" arrows="1" fold="1" page="1" pageScale="1" pageWidth="3300" pageHeight="4681" math="0" shadow="0">
      <root>
        <mxCell id="0Vr294uvNE-M3VxmGtpU-0"/>
        <mxCell id="0Vr294uvNE-M3VxmGtpU-1" parent="0Vr294uvNE-M3VxmGtpU-0"/>
        <mxCell id="0Vr294uvNE-M3VxmGtpU-2" value="数据源" style="swimlane;fillColor=#b1ddf0;strokeColor=#10739e;" vertex="1" parent="0Vr294uvNE-M3VxmGtpU-1">
          <mxGeometry x="260" y="220" width="220" height="590" as="geometry"/>
        </mxCell>
        <mxCell id="0Vr294uvNE-M3VxmGtpU-3" value="源数据文件" style="strokeWidth=2;html=1;shape=mxgraph.flowchart.multi-document;whiteSpace=wrap;fillColor=#cce5ff;strokeColor=#36393d;" vertex="1" parent="0Vr294uvNE-M3VxmGtpU-2">
          <mxGeometry x="40" y="135" width="124" height="90" as="geometry"/>
        </mxCell>
        <mxCell id="0Vr294uvNE-M3VxmGtpU-4" value="ETL输入模块" style="swimlane;fillColor=#b1ddf0;strokeColor=#10739e;" vertex="1" parent="0Vr294uvNE-M3VxmGtpU-1">
          <mxGeometry x="480" y="220" width="250" height="590" as="geometry"/>
        </mxCell>
        <mxCell id="0Vr294uvNE-M3VxmGtpU-5" style="edgeStyle=orthogonalEdgeStyle;rounded=0;orthogonalLoop=1;jettySize=auto;html=1;entryX=0.5;entryY=0;entryDx=0;entryDy=0;" edge="1" parent="0Vr294uvNE-M3VxmGtpU-4" source="0Vr294uvNE-M3VxmGtpU-6" target="0Vr294uvNE-M3VxmGtpU-8">
          <mxGeometry relative="1" as="geometry"/>
        </mxCell>
        <mxCell id="0Vr294uvNE-M3VxmGtpU-6" value="初始化输入模块" style="ellipse;whiteSpace=wrap;html=1;fillColor=#cce5ff;strokeColor=#36393d;" vertex="1" parent="0Vr294uvNE-M3VxmGtpU-4">
          <mxGeometry x="70" y="35" width="110" height="70" as="geometry"/>
        </mxCell>
        <mxCell id="0Vr294uvNE-M3VxmGtpU-7" style="edgeStyle=orthogonalEdgeStyle;rounded=0;orthogonalLoop=1;jettySize=auto;html=1;entryX=0.5;entryY=0;entryDx=0;entryDy=0;" edge="1" parent="0Vr294uvNE-M3VxmGtpU-4" source="0Vr294uvNE-M3VxmGtpU-8" target="0Vr294uvNE-M3VxmGtpU-10">
          <mxGeometry relative="1" as="geometry"/>
        </mxCell>
        <mxCell id="0Vr294uvNE-M3VxmGtpU-8" value="读取源数据" style="whiteSpace=wrap;html=1;fillColor=#cce5ff;strokeColor=#36393d;" vertex="1" parent="0Vr294uvNE-M3VxmGtpU-4">
          <mxGeometry x="65" y="150" width="120" height="60" as="geometry"/>
        </mxCell>
        <mxCell id="0Vr294uvNE-M3VxmGtpU-9" style="edgeStyle=orthogonalEdgeStyle;rounded=0;orthogonalLoop=1;jettySize=auto;html=1;entryX=0.5;entryY=0;entryDx=0;entryDy=0;" edge="1" parent="0Vr294uvNE-M3VxmGtpU-4" source="0Vr294uvNE-M3VxmGtpU-10" target="0Vr294uvNE-M3VxmGtpU-12">
          <mxGeometry relative="1" as="geometry"/>
        </mxCell>
        <mxCell id="0Vr294uvNE-M3VxmGtpU-10" value="处理源数据" style="whiteSpace=wrap;html=1;fillColor=#cce5ff;strokeColor=#36393d;" vertex="1" parent="0Vr294uvNE-M3VxmGtpU-4">
          <mxGeometry x="52.5" y="270" width="145" height="70" as="geometry"/>
        </mxCell>
        <mxCell id="0Vr294uvNE-M3VxmGtpU-11" style="edgeStyle=orthogonalEdgeStyle;rounded=0;orthogonalLoop=1;jettySize=auto;html=1;entryX=0.5;entryY=0;entryDx=0;entryDy=0;" edge="1" parent="0Vr294uvNE-M3VxmGtpU-4" source="0Vr294uvNE-M3VxmGtpU-12" target="0Vr294uvNE-M3VxmGtpU-13">
          <mxGeometry relative="1" as="geometry">
            <mxPoint x="125" y="480" as="targetPoint"/>
          </mxGeometry>
        </mxCell>
        <mxCell id="0Vr294uvNE-M3VxmGtpU-12" value="提取需要的数据输出" style="whiteSpace=wrap;html=1;fillColor=#cce5ff;strokeColor=#36393d;" vertex="1" parent="0Vr294uvNE-M3VxmGtpU-4">
          <mxGeometry x="65" y="380" width="120" height="60" as="geometry"/>
        </mxCell>
        <mxCell id="0Vr294uvNE-M3VxmGtpU-13" value="输入模块完毕" style="ellipse;whiteSpace=wrap;html=1;fillColor=#cce5ff;strokeColor=#36393d;" vertex="1" parent="0Vr294uvNE-M3VxmGtpU-4">
          <mxGeometry x="70" y="500" width="110" height="70" as="geometry"/>
        </mxCell>
        <mxCell id="0Vr294uvNE-M3VxmGtpU-14" value="ETL输入消息队列" style="swimlane;fillColor=#b1ddf0;strokeColor=#10739e;" vertex="1" parent="0Vr294uvNE-M3VxmGtpU-1">
          <mxGeometry x="730" y="220" width="190" height="590" as="geometry"/>
        </mxCell>
        <mxCell id="0Vr294uvNE-M3VxmGtpU-15" value="Map&amp;lt;String,Object&amp;gt;" style="strokeWidth=2;html=1;shape=mxgraph.flowchart.sequential_data;whiteSpace=wrap;fillColor=#cce5ff;strokeColor=#36393d;" vertex="1" parent="0Vr294uvNE-M3VxmGtpU-14">
          <mxGeometry x="30" y="130" width="125" height="100" as="geometry"/>
        </mxCell>
        <mxCell id="0Vr294uvNE-M3VxmGtpU-16" style="edgeStyle=orthogonalEdgeStyle;rounded=0;orthogonalLoop=1;jettySize=auto;html=1;entryX=0.5;entryY=1;entryDx=0;entryDy=0;entryPerimeter=0;" edge="1" parent="0Vr294uvNE-M3VxmGtpU-1" source="0Vr294uvNE-M3VxmGtpU-12" target="0Vr294uvNE-M3VxmGtpU-15">
          <mxGeometry relative="1" as="geometry"/>
        </mxCell>
        <mxCell id="0Vr294uvNE-M3VxmGtpU-17" style="edgeStyle=orthogonalEdgeStyle;rounded=0;orthogonalLoop=1;jettySize=auto;html=1;entryX=0;entryY=0.5;entryDx=0;entryDy=0;fontColor=#FFFFFF;" edge="1" parent="0Vr294uvNE-M3VxmGtpU-1" source="0Vr294uvNE-M3VxmGtpU-3" target="0Vr294uvNE-M3VxmGtpU-8">
          <mxGeometry relative="1" as="geometry"/>
        </mxCell>
        <mxCell id="0Vr294uvNE-M3VxmGtpU-18" value="ETL解析模块" style="swimlane;fillColor=#b1ddf0;strokeColor=#10739e;startSize=23;" vertex="1" parent="0Vr294uvNE-M3VxmGtpU-1">
          <mxGeometry x="920" y="220" width="190" height="590" as="geometry"/>
        </mxCell>
        <mxCell id="0Vr294uvNE-M3VxmGtpU-24" style="edgeStyle=orthogonalEdgeStyle;rounded=0;orthogonalLoop=1;jettySize=auto;html=1;entryX=0.5;entryY=0;entryDx=0;entryDy=0;fontColor=#FFFFFF;" edge="1" parent="0Vr294uvNE-M3VxmGtpU-18" source="0Vr294uvNE-M3VxmGtpU-20" target="0Vr294uvNE-M3VxmGtpU-23">
          <mxGeometry relative="1" as="geometry"/>
        </mxCell>
        <mxCell id="0Vr294uvNE-M3VxmGtpU-20" value="初始化解析模块" style="ellipse;whiteSpace=wrap;html=1;fillColor=#cce5ff;strokeColor=#36393d;" vertex="1" parent="0Vr294uvNE-M3VxmGtpU-18">
          <mxGeometry x="40" y="35" width="110" height="70" as="geometry"/>
        </mxCell>
        <mxCell id="0Vr294uvNE-M3VxmGtpU-27" value="" style="edgeStyle=orthogonalEdgeStyle;rounded=0;orthogonalLoop=1;jettySize=auto;html=1;fontColor=#FFFFFF;" edge="1" parent="0Vr294uvNE-M3VxmGtpU-18" source="0Vr294uvNE-M3VxmGtpU-23" target="0Vr294uvNE-M3VxmGtpU-26">
          <mxGeometry relative="1" as="geometry"/>
        </mxCell>
        <mxCell id="0Vr294uvNE-M3VxmGtpU-23" value="获取消息" style="whiteSpace=wrap;html=1;fillColor=#cce5ff;strokeColor=#36393d;" vertex="1" parent="0Vr294uvNE-M3VxmGtpU-18">
          <mxGeometry x="35" y="150" width="120" height="60" as="geometry"/>
        </mxCell>
        <mxCell id="0Vr294uvNE-M3VxmGtpU-29" value="" style="edgeStyle=orthogonalEdgeStyle;rounded=0;orthogonalLoop=1;jettySize=auto;html=1;fontColor=#FFFFFF;" edge="1" parent="0Vr294uvNE-M3VxmGtpU-18" source="0Vr294uvNE-M3VxmGtpU-26" target="0Vr294uvNE-M3VxmGtpU-28">
          <mxGeometry relative="1" as="geometry"/>
        </mxCell>
        <mxCell id="0Vr294uvNE-M3VxmGtpU-26" value="缓存构建解析器处理" style="whiteSpace=wrap;html=1;fillColor=#cce5ff;strokeColor=#36393d;" vertex="1" parent="0Vr294uvNE-M3VxmGtpU-18">
          <mxGeometry x="35" y="265" width="120" height="60" as="geometry"/>
        </mxCell>
        <mxCell id="0Vr294uvNE-M3VxmGtpU-31" value="" style="edgeStyle=orthogonalEdgeStyle;rounded=0;orthogonalLoop=1;jettySize=auto;html=1;fontColor=#FFFFFF;entryX=0.5;entryY=0;entryDx=0;entryDy=0;" edge="1" parent="0Vr294uvNE-M3VxmGtpU-18" source="0Vr294uvNE-M3VxmGtpU-28" target="0Vr294uvNE-M3VxmGtpU-32">
          <mxGeometry relative="1" as="geometry">
            <mxPoint x="95" y="500" as="targetPoint"/>
          </mxGeometry>
        </mxCell>
        <mxCell id="0Vr294uvNE-M3VxmGtpU-28" value="输出消息" style="whiteSpace=wrap;html=1;fillColor=#cce5ff;strokeColor=#36393d;" vertex="1" parent="0Vr294uvNE-M3VxmGtpU-18">
          <mxGeometry x="35" y="380" width="120" height="60" as="geometry"/>
        </mxCell>
        <mxCell id="0Vr294uvNE-M3VxmGtpU-32" value="解析模块完毕" style="ellipse;whiteSpace=wrap;html=1;fillColor=#cce5ff;strokeColor=#36393d;" vertex="1" parent="0Vr294uvNE-M3VxmGtpU-18">
          <mxGeometry x="40" y="500" width="110" height="70" as="geometry"/>
        </mxCell>
        <mxCell id="0Vr294uvNE-M3VxmGtpU-25" style="edgeStyle=orthogonalEdgeStyle;rounded=0;orthogonalLoop=1;jettySize=auto;html=1;entryX=0;entryY=0.5;entryDx=0;entryDy=0;fontColor=#FFFFFF;" edge="1" parent="0Vr294uvNE-M3VxmGtpU-1" source="0Vr294uvNE-M3VxmGtpU-15" target="0Vr294uvNE-M3VxmGtpU-23">
          <mxGeometry relative="1" as="geometry"/>
        </mxCell>
        <mxCell id="0Vr294uvNE-M3VxmGtpU-33" value="ETL输出消息队列" style="swimlane;fillColor=#b1ddf0;strokeColor=#10739e;" vertex="1" parent="0Vr294uvNE-M3VxmGtpU-1">
          <mxGeometry x="1110" y="220" width="190" height="590" as="geometry"/>
        </mxCell>
        <mxCell id="0Vr294uvNE-M3VxmGtpU-34" value="Map&amp;lt;String,Object&amp;gt;" style="strokeWidth=2;html=1;shape=mxgraph.flowchart.sequential_data;whiteSpace=wrap;fillColor=#cce5ff;strokeColor=#36393d;" vertex="1" parent="0Vr294uvNE-M3VxmGtpU-33">
          <mxGeometry x="30" y="130" width="125" height="100" as="geometry"/>
        </mxCell>
        <mxCell id="0Vr294uvNE-M3VxmGtpU-36" style="edgeStyle=orthogonalEdgeStyle;rounded=0;orthogonalLoop=1;jettySize=auto;html=1;entryX=0.5;entryY=1;entryDx=0;entryDy=0;entryPerimeter=0;fontColor=#FFFFFF;" edge="1" parent="0Vr294uvNE-M3VxmGtpU-1" source="0Vr294uvNE-M3VxmGtpU-28" target="0Vr294uvNE-M3VxmGtpU-34">
          <mxGeometry relative="1" as="geometry"/>
        </mxCell>
      </root>
    </mxGraphModel>
  </diagram>
  <diagram name="CacheMatchAnalyser" id="6tJeXMhGGitV_Z6dKe4h">
    <mxGraphModel dx="1102" dy="582" grid="1" gridSize="10" guides="1" tooltips="1" connect="1" arrows="1" fold="1" page="1" pageScale="1" pageWidth="3300" pageHeight="4681" math="0" shadow="0">
      <root>
        <mxCell id="0AodWVna2HB9icSDbrAr-0"/>
        <mxCell id="0AodWVna2HB9icSDbrAr-1" parent="0AodWVna2HB9icSDbrAr-0"/>
        <mxCell id="0AodWVna2HB9icSDbrAr-2" value="数据源" style="swimlane;fillColor=#b1ddf0;strokeColor=#10739e;" vertex="1" parent="0AodWVna2HB9icSDbrAr-1">
          <mxGeometry x="260" y="220" width="220" height="590" as="geometry"/>
        </mxCell>
        <mxCell id="0AodWVna2HB9icSDbrAr-3" value="源数据文件" style="strokeWidth=2;html=1;shape=mxgraph.flowchart.multi-document;whiteSpace=wrap;fillColor=#cce5ff;strokeColor=#36393d;" vertex="1" parent="0AodWVna2HB9icSDbrAr-2">
          <mxGeometry x="40" y="135" width="124" height="90" as="geometry"/>
        </mxCell>
        <mxCell id="0AodWVna2HB9icSDbrAr-4" value="ETL输入模块" style="swimlane;fillColor=#b1ddf0;strokeColor=#10739e;" vertex="1" parent="0AodWVna2HB9icSDbrAr-1">
          <mxGeometry x="480" y="220" width="250" height="590" as="geometry"/>
        </mxCell>
        <mxCell id="0AodWVna2HB9icSDbrAr-5" style="edgeStyle=orthogonalEdgeStyle;rounded=0;orthogonalLoop=1;jettySize=auto;html=1;entryX=0.5;entryY=0;entryDx=0;entryDy=0;" edge="1" parent="0AodWVna2HB9icSDbrAr-4" source="0AodWVna2HB9icSDbrAr-6" target="0AodWVna2HB9icSDbrAr-8">
          <mxGeometry relative="1" as="geometry"/>
        </mxCell>
        <mxCell id="0AodWVna2HB9icSDbrAr-6" value="初始化输入模块" style="ellipse;whiteSpace=wrap;html=1;fillColor=#cce5ff;strokeColor=#36393d;" vertex="1" parent="0AodWVna2HB9icSDbrAr-4">
          <mxGeometry x="70" y="35" width="110" height="70" as="geometry"/>
        </mxCell>
        <mxCell id="0AodWVna2HB9icSDbrAr-7" style="edgeStyle=orthogonalEdgeStyle;rounded=0;orthogonalLoop=1;jettySize=auto;html=1;entryX=0.5;entryY=0;entryDx=0;entryDy=0;" edge="1" parent="0AodWVna2HB9icSDbrAr-4" source="0AodWVna2HB9icSDbrAr-8" target="0AodWVna2HB9icSDbrAr-10">
          <mxGeometry relative="1" as="geometry"/>
        </mxCell>
        <mxCell id="0AodWVna2HB9icSDbrAr-8" value="读取源数据" style="whiteSpace=wrap;html=1;fillColor=#cce5ff;strokeColor=#36393d;" vertex="1" parent="0AodWVna2HB9icSDbrAr-4">
          <mxGeometry x="65" y="150" width="120" height="60" as="geometry"/>
        </mxCell>
        <mxCell id="0AodWVna2HB9icSDbrAr-9" style="edgeStyle=orthogonalEdgeStyle;rounded=0;orthogonalLoop=1;jettySize=auto;html=1;entryX=0.5;entryY=0;entryDx=0;entryDy=0;" edge="1" parent="0AodWVna2HB9icSDbrAr-4" source="0AodWVna2HB9icSDbrAr-10" target="0AodWVna2HB9icSDbrAr-12">
          <mxGeometry relative="1" as="geometry"/>
        </mxCell>
        <mxCell id="0AodWVna2HB9icSDbrAr-10" value="处理源数据" style="whiteSpace=wrap;html=1;fillColor=#cce5ff;strokeColor=#36393d;" vertex="1" parent="0AodWVna2HB9icSDbrAr-4">
          <mxGeometry x="52.5" y="270" width="145" height="70" as="geometry"/>
        </mxCell>
        <mxCell id="0AodWVna2HB9icSDbrAr-11" style="edgeStyle=orthogonalEdgeStyle;rounded=0;orthogonalLoop=1;jettySize=auto;html=1;entryX=0.5;entryY=0;entryDx=0;entryDy=0;" edge="1" parent="0AodWVna2HB9icSDbrAr-4" source="0AodWVna2HB9icSDbrAr-12" target="0AodWVna2HB9icSDbrAr-13">
          <mxGeometry relative="1" as="geometry">
            <mxPoint x="125" y="480" as="targetPoint"/>
          </mxGeometry>
        </mxCell>
        <mxCell id="0AodWVna2HB9icSDbrAr-12" value="提取需要的数据输出" style="whiteSpace=wrap;html=1;fillColor=#cce5ff;strokeColor=#36393d;" vertex="1" parent="0AodWVna2HB9icSDbrAr-4">
          <mxGeometry x="65" y="380" width="120" height="60" as="geometry"/>
        </mxCell>
        <mxCell id="0AodWVna2HB9icSDbrAr-13" value="输入模块完毕" style="ellipse;whiteSpace=wrap;html=1;fillColor=#cce5ff;strokeColor=#36393d;" vertex="1" parent="0AodWVna2HB9icSDbrAr-4">
          <mxGeometry x="70" y="500" width="110" height="70" as="geometry"/>
        </mxCell>
        <mxCell id="0AodWVna2HB9icSDbrAr-14" value="ETL输入消息队列" style="swimlane;fillColor=#b1ddf0;strokeColor=#10739e;" vertex="1" parent="0AodWVna2HB9icSDbrAr-1">
          <mxGeometry x="730" y="220" width="190" height="590" as="geometry"/>
        </mxCell>
        <mxCell id="0AodWVna2HB9icSDbrAr-15" value="Map&amp;lt;String,Object&amp;gt;" style="strokeWidth=2;html=1;shape=mxgraph.flowchart.sequential_data;whiteSpace=wrap;fillColor=#cce5ff;strokeColor=#36393d;" vertex="1" parent="0AodWVna2HB9icSDbrAr-14">
          <mxGeometry x="30" y="130" width="125" height="100" as="geometry"/>
        </mxCell>
        <mxCell id="0AodWVna2HB9icSDbrAr-16" style="edgeStyle=orthogonalEdgeStyle;rounded=0;orthogonalLoop=1;jettySize=auto;html=1;entryX=0.5;entryY=1;entryDx=0;entryDy=0;entryPerimeter=0;" edge="1" parent="0AodWVna2HB9icSDbrAr-1" source="0AodWVna2HB9icSDbrAr-12" target="0AodWVna2HB9icSDbrAr-15">
          <mxGeometry relative="1" as="geometry"/>
        </mxCell>
        <mxCell id="0AodWVna2HB9icSDbrAr-17" style="edgeStyle=orthogonalEdgeStyle;rounded=0;orthogonalLoop=1;jettySize=auto;html=1;entryX=0;entryY=0.5;entryDx=0;entryDy=0;fontColor=#FFFFFF;" edge="1" parent="0AodWVna2HB9icSDbrAr-1" source="0AodWVna2HB9icSDbrAr-3" target="0AodWVna2HB9icSDbrAr-8">
          <mxGeometry relative="1" as="geometry"/>
        </mxCell>
        <mxCell id="0AodWVna2HB9icSDbrAr-18" value="ETL解析模块" style="swimlane;fillColor=#b1ddf0;strokeColor=#10739e;startSize=23;" vertex="1" parent="0AodWVna2HB9icSDbrAr-1">
          <mxGeometry x="920" y="220" width="190" height="590" as="geometry"/>
        </mxCell>
        <mxCell id="0AodWVna2HB9icSDbrAr-19" style="edgeStyle=orthogonalEdgeStyle;rounded=0;orthogonalLoop=1;jettySize=auto;html=1;entryX=0.5;entryY=0;entryDx=0;entryDy=0;fontColor=#FFFFFF;" edge="1" parent="0AodWVna2HB9icSDbrAr-18" source="0AodWVna2HB9icSDbrAr-20" target="0AodWVna2HB9icSDbrAr-22">
          <mxGeometry relative="1" as="geometry"/>
        </mxCell>
        <mxCell id="0AodWVna2HB9icSDbrAr-20" value="初始化解析模块" style="ellipse;whiteSpace=wrap;html=1;fillColor=#cce5ff;strokeColor=#36393d;" vertex="1" parent="0AodWVna2HB9icSDbrAr-18">
          <mxGeometry x="40" y="35" width="110" height="70" as="geometry"/>
        </mxCell>
        <mxCell id="0AodWVna2HB9icSDbrAr-21" value="" style="edgeStyle=orthogonalEdgeStyle;rounded=0;orthogonalLoop=1;jettySize=auto;html=1;fontColor=#FFFFFF;" edge="1" parent="0AodWVna2HB9icSDbrAr-18" source="0AodWVna2HB9icSDbrAr-22" target="0AodWVna2HB9icSDbrAr-24">
          <mxGeometry relative="1" as="geometry"/>
        </mxCell>
        <mxCell id="0AodWVna2HB9icSDbrAr-22" value="获取消息" style="whiteSpace=wrap;html=1;fillColor=#cce5ff;strokeColor=#36393d;" vertex="1" parent="0AodWVna2HB9icSDbrAr-18">
          <mxGeometry x="35" y="150" width="120" height="60" as="geometry"/>
        </mxCell>
        <mxCell id="0AodWVna2HB9icSDbrAr-23" value="" style="edgeStyle=orthogonalEdgeStyle;rounded=0;orthogonalLoop=1;jettySize=auto;html=1;fontColor=#FFFFFF;" edge="1" parent="0AodWVna2HB9icSDbrAr-18" source="0AodWVna2HB9icSDbrAr-24" target="0AodWVna2HB9icSDbrAr-26">
          <mxGeometry relative="1" as="geometry"/>
        </mxCell>
        <mxCell id="0AodWVna2HB9icSDbrAr-24" value="缓存匹配解析器处理" style="whiteSpace=wrap;html=1;fillColor=#cce5ff;strokeColor=#36393d;" vertex="1" parent="0AodWVna2HB9icSDbrAr-18">
          <mxGeometry x="35" y="265" width="120" height="60" as="geometry"/>
        </mxCell>
        <mxCell id="0AodWVna2HB9icSDbrAr-25" value="" style="edgeStyle=orthogonalEdgeStyle;rounded=0;orthogonalLoop=1;jettySize=auto;html=1;fontColor=#FFFFFF;entryX=0.5;entryY=0;entryDx=0;entryDy=0;" edge="1" parent="0AodWVna2HB9icSDbrAr-18" source="0AodWVna2HB9icSDbrAr-26" target="0AodWVna2HB9icSDbrAr-27">
          <mxGeometry relative="1" as="geometry">
            <mxPoint x="95" y="500" as="targetPoint"/>
          </mxGeometry>
        </mxCell>
        <mxCell id="0AodWVna2HB9icSDbrAr-26" value="输出消息" style="whiteSpace=wrap;html=1;fillColor=#cce5ff;strokeColor=#36393d;" vertex="1" parent="0AodWVna2HB9icSDbrAr-18">
          <mxGeometry x="35" y="380" width="120" height="60" as="geometry"/>
        </mxCell>
        <mxCell id="0AodWVna2HB9icSDbrAr-27" value="解析模块完毕" style="ellipse;whiteSpace=wrap;html=1;fillColor=#cce5ff;strokeColor=#36393d;" vertex="1" parent="0AodWVna2HB9icSDbrAr-18">
          <mxGeometry x="40" y="500" width="110" height="70" as="geometry"/>
        </mxCell>
        <mxCell id="0AodWVna2HB9icSDbrAr-28" style="edgeStyle=orthogonalEdgeStyle;rounded=0;orthogonalLoop=1;jettySize=auto;html=1;entryX=0;entryY=0.5;entryDx=0;entryDy=0;fontColor=#FFFFFF;" edge="1" parent="0AodWVna2HB9icSDbrAr-1" source="0AodWVna2HB9icSDbrAr-15" target="0AodWVna2HB9icSDbrAr-22">
          <mxGeometry relative="1" as="geometry"/>
        </mxCell>
        <mxCell id="0AodWVna2HB9icSDbrAr-29" value="ETL输出消息队列" style="swimlane;fillColor=#b1ddf0;strokeColor=#10739e;" vertex="1" parent="0AodWVna2HB9icSDbrAr-1">
          <mxGeometry x="1110" y="220" width="190" height="590" as="geometry"/>
        </mxCell>
        <mxCell id="0AodWVna2HB9icSDbrAr-30" value="Map&amp;lt;String,Object&amp;gt;" style="strokeWidth=2;html=1;shape=mxgraph.flowchart.sequential_data;whiteSpace=wrap;fillColor=#cce5ff;strokeColor=#36393d;" vertex="1" parent="0AodWVna2HB9icSDbrAr-29">
          <mxGeometry x="30" y="130" width="125" height="100" as="geometry"/>
        </mxCell>
        <mxCell id="0AodWVna2HB9icSDbrAr-31" style="edgeStyle=orthogonalEdgeStyle;rounded=0;orthogonalLoop=1;jettySize=auto;html=1;entryX=0.5;entryY=1;entryDx=0;entryDy=0;entryPerimeter=0;fontColor=#FFFFFF;" edge="1" parent="0AodWVna2HB9icSDbrAr-1" source="0AodWVna2HB9icSDbrAr-26" target="0AodWVna2HB9icSDbrAr-30">
          <mxGeometry relative="1" as="geometry"/>
        </mxCell>
      </root>
    </mxGraphModel>
  </diagram>
  <diagram name="ETL解析器更新机制" id="JFFQAuG_wPv6WIEdarv0">
    <mxGraphModel dx="1102" dy="582" grid="1" gridSize="10" guides="1" tooltips="1" connect="1" arrows="1" fold="1" page="1" pageScale="1" pageWidth="3300" pageHeight="4681" math="0" shadow="0">
      <root>
        <mxCell id="qLnb4DoY_4VkfMyuGr5S-0"/>
        <mxCell id="qLnb4DoY_4VkfMyuGr5S-1" parent="qLnb4DoY_4VkfMyuGr5S-0"/>
        <mxCell id="qLnb4DoY_4VkfMyuGr5S-2" value="数据源" style="swimlane;fillColor=#b1ddf0;strokeColor=#10739e;" vertex="1" parent="qLnb4DoY_4VkfMyuGr5S-1">
          <mxGeometry x="260" y="220" width="220" height="590" as="geometry"/>
        </mxCell>
        <mxCell id="qLnb4DoY_4VkfMyuGr5S-34" value="解析器规则库" style="html=1;shape=mxgraph.flowchart.database;whiteSpace=wrap;fontColor=#000000;strokeColor=#36393d;fillColor=#cce5ff;" vertex="1" parent="qLnb4DoY_4VkfMyuGr5S-2">
          <mxGeometry x="65" y="125" width="90" height="110" as="geometry"/>
        </mxCell>
        <mxCell id="qLnb4DoY_4VkfMyuGr5S-18" value="ETL解析模块" style="swimlane;fillColor=#b1ddf0;strokeColor=#10739e;startSize=23;" vertex="1" parent="qLnb4DoY_4VkfMyuGr5S-1">
          <mxGeometry x="480" y="220" width="190" height="590" as="geometry"/>
        </mxCell>
        <mxCell id="qLnb4DoY_4VkfMyuGr5S-19" style="edgeStyle=orthogonalEdgeStyle;rounded=0;orthogonalLoop=1;jettySize=auto;html=1;entryX=0.5;entryY=0;entryDx=0;entryDy=0;fontColor=#FFFFFF;" edge="1" parent="qLnb4DoY_4VkfMyuGr5S-18" source="qLnb4DoY_4VkfMyuGr5S-20" target="qLnb4DoY_4VkfMyuGr5S-22">
          <mxGeometry relative="1" as="geometry"/>
        </mxCell>
        <mxCell id="qLnb4DoY_4VkfMyuGr5S-20" value="初始化解析模块" style="ellipse;whiteSpace=wrap;html=1;fillColor=#cce5ff;strokeColor=#36393d;" vertex="1" parent="qLnb4DoY_4VkfMyuGr5S-18">
          <mxGeometry x="40" y="35" width="110" height="70" as="geometry"/>
        </mxCell>
        <mxCell id="qLnb4DoY_4VkfMyuGr5S-21" value="" style="edgeStyle=orthogonalEdgeStyle;rounded=0;orthogonalLoop=1;jettySize=auto;html=1;fontColor=#FFFFFF;entryX=0.5;entryY=0;entryDx=0;entryDy=0;entryPerimeter=0;" edge="1" parent="qLnb4DoY_4VkfMyuGr5S-18" source="qLnb4DoY_4VkfMyuGr5S-22" target="qLnb4DoY_4VkfMyuGr5S-36">
          <mxGeometry relative="1" as="geometry">
            <mxPoint x="95" y="265" as="targetPoint"/>
          </mxGeometry>
        </mxCell>
        <mxCell id="qLnb4DoY_4VkfMyuGr5S-22" value="加载规则表" style="whiteSpace=wrap;html=1;fillColor=#cce5ff;strokeColor=#36393d;" vertex="1" parent="qLnb4DoY_4VkfMyuGr5S-18">
          <mxGeometry x="35" y="150" width="120" height="60" as="geometry"/>
        </mxCell>
        <mxCell id="qLnb4DoY_4VkfMyuGr5S-23" value="是" style="edgeStyle=orthogonalEdgeStyle;rounded=0;orthogonalLoop=1;jettySize=auto;html=1;fontColor=#000000;exitX=0.5;exitY=1;exitDx=0;exitDy=0;exitPerimeter=0;" edge="1" parent="qLnb4DoY_4VkfMyuGr5S-18" source="qLnb4DoY_4VkfMyuGr5S-36" target="qLnb4DoY_4VkfMyuGr5S-26">
          <mxGeometry relative="1" as="geometry">
            <mxPoint x="95" y="325" as="sourcePoint"/>
          </mxGeometry>
        </mxCell>
        <mxCell id="qLnb4DoY_4VkfMyuGr5S-25" value="" style="edgeStyle=orthogonalEdgeStyle;rounded=0;orthogonalLoop=1;jettySize=auto;html=1;fontColor=#FFFFFF;entryX=0.5;entryY=0;entryDx=0;entryDy=0;" edge="1" parent="qLnb4DoY_4VkfMyuGr5S-18" source="qLnb4DoY_4VkfMyuGr5S-26" target="qLnb4DoY_4VkfMyuGr5S-27">
          <mxGeometry relative="1" as="geometry">
            <mxPoint x="95" y="500" as="targetPoint"/>
          </mxGeometry>
        </mxCell>
        <mxCell id="qLnb4DoY_4VkfMyuGr5S-26" value="再次加载规则表" style="whiteSpace=wrap;html=1;fillColor=#cce5ff;strokeColor=#36393d;" vertex="1" parent="qLnb4DoY_4VkfMyuGr5S-18">
          <mxGeometry x="35" y="380" width="120" height="60" as="geometry"/>
        </mxCell>
        <mxCell id="qLnb4DoY_4VkfMyuGr5S-27" value="解析模块完毕" style="ellipse;whiteSpace=wrap;html=1;fillColor=#cce5ff;strokeColor=#36393d;" vertex="1" parent="qLnb4DoY_4VkfMyuGr5S-18">
          <mxGeometry x="40" y="500" width="110" height="70" as="geometry"/>
        </mxCell>
        <mxCell id="qLnb4DoY_4VkfMyuGr5S-36" value="需要更新" style="html=1;shape=mxgraph.flowchart.decision;whiteSpace=wrap;fontColor=#000000;strokeColor=#36393d;fillColor=#cce5ff;" vertex="1" parent="qLnb4DoY_4VkfMyuGr5S-18">
          <mxGeometry x="52.5" y="250" width="85" height="70" as="geometry"/>
        </mxCell>
        <mxCell id="qLnb4DoY_4VkfMyuGr5S-35" style="edgeStyle=orthogonalEdgeStyle;rounded=0;orthogonalLoop=1;jettySize=auto;html=1;fontColor=#000000;" edge="1" parent="qLnb4DoY_4VkfMyuGr5S-1" source="qLnb4DoY_4VkfMyuGr5S-22" target="qLnb4DoY_4VkfMyuGr5S-34">
          <mxGeometry relative="1" as="geometry"/>
        </mxCell>
        <mxCell id="qLnb4DoY_4VkfMyuGr5S-37" style="edgeStyle=orthogonalEdgeStyle;rounded=0;orthogonalLoop=1;jettySize=auto;html=1;fontColor=#000000;" edge="1" parent="qLnb4DoY_4VkfMyuGr5S-1" source="qLnb4DoY_4VkfMyuGr5S-26" target="qLnb4DoY_4VkfMyuGr5S-34">
          <mxGeometry relative="1" as="geometry"/>
        </mxCell>
      </root>
    </mxGraphModel>
  </diagram>
  <diagram id="QK4SYE3_93_N6T92J-37" name="ETL解析模块">
    <mxGraphModel dx="1102" dy="582" grid="1" gridSize="10" guides="1" tooltips="1" connect="1" arrows="1" fold="1" page="1" pageScale="1" pageWidth="827" pageHeight="1169" background="#FFFFFF" math="0" shadow="0">
      <root>
        <mxCell id="kBmMX7nffdBsAzFuXpu_-0"/>
        <mxCell id="kBmMX7nffdBsAzFuXpu_-1" parent="kBmMX7nffdBsAzFuXpu_-0"/>
        <mxCell id="kBmMX7nffdBsAzFuXpu_-2" value="原始消息事件推送" style="edgeStyle=orthogonalEdgeStyle;rounded=0;orthogonalLoop=1;jettySize=auto;fontSize=12;fontColor=#000000;" parent="kBmMX7nffdBsAzFuXpu_-1" source="kBmMX7nffdBsAzFuXpu_-3" target="kBmMX7nffdBsAzFuXpu_-5" edge="1">
          <mxGeometry relative="1" as="geometry"/>
        </mxCell>
        <mxCell id="kBmMX7nffdBsAzFuXpu_-3" value="数据源" style="rounded=0;whiteSpace=wrap;html=1;labelBackgroundColor=none;fillColor=#3399FF;strokeColor=#6c8ebf;fontColor=#FFFFFF;" parent="kBmMX7nffdBsAzFuXpu_-1" vertex="1">
          <mxGeometry x="200" y="210" width="440" height="40" as="geometry"/>
        </mxCell>
        <mxCell id="kBmMX7nffdBsAzFuXpu_-4" value="解析前消息事件推送" style="edgeStyle=orthogonalEdgeStyle;rounded=0;orthogonalLoop=1;jettySize=auto;html=0;fontSize=12;fontColor=#000000;" parent="kBmMX7nffdBsAzFuXpu_-1" source="kBmMX7nffdBsAzFuXpu_-5" target="kBmMX7nffdBsAzFuXpu_-8" edge="1">
          <mxGeometry relative="1" as="geometry"/>
        </mxCell>
        <mxCell id="kBmMX7nffdBsAzFuXpu_-5" value="输入消息队列" style="strokeWidth=2;html=1;shape=mxgraph.flowchart.sequential_data;whiteSpace=wrap;fillColor=#1ba1e2;strokeColor=#006EAF;fontColor=#ffffff;" parent="kBmMX7nffdBsAzFuXpu_-1" vertex="1">
          <mxGeometry x="290" y="310" width="260" height="70" as="geometry"/>
        </mxCell>
        <mxCell id="kBmMX7nffdBsAzFuXpu_-6" value="ETL解析模块数据流" style="text;html=1;strokeColor=none;fillColor=none;align=center;verticalAlign=middle;whiteSpace=wrap;rounded=0;fontSize=28;fontStyle=0;labelBackgroundColor=#FFFFFF;fontColor=#000000;" parent="kBmMX7nffdBsAzFuXpu_-1" vertex="1">
          <mxGeometry x="260" y="120" width="320" height="60" as="geometry"/>
        </mxCell>
        <mxCell id="kBmMX7nffdBsAzFuXpu_-7" value="解析后消息事件推送" style="edgeStyle=orthogonalEdgeStyle;rounded=0;orthogonalLoop=1;jettySize=auto;html=0;fontSize=12;fontColor=#000000;" parent="kBmMX7nffdBsAzFuXpu_-1" source="kBmMX7nffdBsAzFuXpu_-8" target="kBmMX7nffdBsAzFuXpu_-14" edge="1">
          <mxGeometry relative="1" as="geometry"/>
        </mxCell>
        <mxCell id="kBmMX7nffdBsAzFuXpu_-8" value="" style="rounded=0;whiteSpace=wrap;html=1;labelBackgroundColor=#12AAB5;fontSize=12;" parent="kBmMX7nffdBsAzFuXpu_-1" vertex="1">
          <mxGeometry x="135" y="450" width="570" height="120" as="geometry"/>
        </mxCell>
        <mxCell id="kBmMX7nffdBsAzFuXpu_-9" value="URL编解码" style="shape=process;whiteSpace=wrap;html=1;backgroundOutline=1;labelBackgroundColor=none;fontSize=12;fontColor=#FFFFFF;rounded=0;strokeColor=#6c8ebf;fillColor=#3399FF;" parent="kBmMX7nffdBsAzFuXpu_-1" vertex="1">
          <mxGeometry x="155" y="480" width="120" height="60" as="geometry"/>
        </mxCell>
        <mxCell id="kBmMX7nffdBsAzFuXpu_-10" value="IP段匹配解析" style="shape=process;whiteSpace=wrap;html=1;backgroundOutline=1;labelBackgroundColor=none;fontSize=12;fontColor=#FFFFFF;rounded=0;strokeColor=#6c8ebf;fillColor=#3399FF;" parent="kBmMX7nffdBsAzFuXpu_-1" vertex="1">
          <mxGeometry x="293" y="480" width="120" height="60" as="geometry"/>
        </mxCell>
        <mxCell id="kBmMX7nffdBsAzFuXpu_-11" value="中文乱码检测" style="shape=process;whiteSpace=wrap;html=1;backgroundOutline=1;labelBackgroundColor=none;fontSize=12;fontColor=#FFFFFF;rounded=0;strokeColor=#6c8ebf;fillColor=#3399FF;" parent="kBmMX7nffdBsAzFuXpu_-1" vertex="1">
          <mxGeometry x="429" y="480" width="120" height="60" as="geometry"/>
        </mxCell>
        <mxCell id="kBmMX7nffdBsAzFuXpu_-12" value="不定字段个数" style="shape=process;whiteSpace=wrap;html=1;backgroundOutline=1;labelBackgroundColor=none;fontSize=12;fontColor=#FFFFFF;rounded=0;strokeColor=#6c8ebf;fillColor=#3399FF;" parent="kBmMX7nffdBsAzFuXpu_-1" vertex="1">
          <mxGeometry x="565" y="480" width="120" height="60" as="geometry"/>
        </mxCell>
        <mxCell id="kBmMX7nffdBsAzFuXpu_-13" value="输出消息事件推送" style="edgeStyle=orthogonalEdgeStyle;rounded=0;orthogonalLoop=1;jettySize=auto;html=0;fontSize=12;fontColor=#000000;" parent="kBmMX7nffdBsAzFuXpu_-1" source="kBmMX7nffdBsAzFuXpu_-14" target="kBmMX7nffdBsAzFuXpu_-15" edge="1">
          <mxGeometry relative="1" as="geometry"/>
        </mxCell>
        <mxCell id="kBmMX7nffdBsAzFuXpu_-14" value="输出消息队列" style="strokeWidth=2;html=1;shape=mxgraph.flowchart.sequential_data;whiteSpace=wrap;fillColor=#1ba1e2;strokeColor=#006EAF;fontColor=#ffffff;" parent="kBmMX7nffdBsAzFuXpu_-1" vertex="1">
          <mxGeometry x="290" y="650" width="260" height="70" as="geometry"/>
        </mxCell>
        <mxCell id="kBmMX7nffdBsAzFuXpu_-15" value="存储数据" style="shape=dataStorage;whiteSpace=wrap;html=1;labelBackgroundColor=none;fontSize=12;fillColor=#3399FF;strokeColor=#6c8ebf;rounded=0;fontColor=#FFFFFF;" parent="kBmMX7nffdBsAzFuXpu_-1" vertex="1">
          <mxGeometry x="140" y="770" width="560" height="50" as="geometry"/>
        </mxCell>
      </root>
    </mxGraphModel>
  </diagram>
</mxfile>
